<?xml version="1.0" encoding="utf-8"?>
<!-- Generator: Adobe Illustrator 16.0.0, SVG Export Plug-In . SVG Version: 6.00 Build 0)  -->
<!DOCTYPE svg PUBLIC "-//W3C//DTD SVG 1.1//EN" "http://www.w3.org/Graphics/SVG/1.1/DTD/svg11.dtd">
<svg version="1.1" id="Layer_1" xmlns="http://www.w3.org/2000/svg" xmlns:xlink="http://www.w3.org/1999/xlink" x="0px" y="0px"
	 width="60px" height="60px" viewBox="0 0 60 60" enable-background="new 0 0 60 60" xml:space="preserve">
<g>
	<path fill="#FFFFFF" d="M12,59.25C5.797,59.25,0.75,54.203,0.75,48V12C0.75,5.797,5.797,0.75,12,0.75h36
		c6.203,0,11.25,5.047,11.25,11.25v36c0,6.203-5.047,11.25-11.25,11.25H12z"/>
	<path fill="#28527A" d="M48,1.5c5.79,0,10.5,4.71,10.5,10.5v36c0,5.79-4.71,10.5-10.5,10.5H12C6.21,58.5,1.5,53.79,1.5,48V12
		C1.5,6.21,6.21,1.5,12,1.5H48 M48,0H12C5.373,0,0,5.373,0,12v36c0,6.627,5.373,12,12,12h36c6.627,0,12-5.373,12-12V12
		C60,5.373,54.627,0,48,0L48,0z"/>
</g>
<g>
	<path fill="#FFFFFF" d="M-35.667-35.417c-6.203,0-11.25-5.047-11.25-11.25v-35.999c0-6.203,5.047-11.25,11.25-11.25h36
		c6.203,0,11.25,5.047,11.25,11.25v35.999c0,6.203-5.047,11.25-11.25,11.25H-35.667z"/>
	<path fill="#28527A" d="M0.333-93.167c5.79,0,10.5,4.71,10.5,10.5v35.999c0,5.79-4.71,10.5-10.5,10.5h-36
		c-5.79,0-10.5-4.71-10.5-10.5v-35.999c0-5.79,4.71-10.5,10.5-10.5H0.333 M0.333-94.667h-36c-6.627,0-12,5.372-12,12v35.999
		c0,6.627,5.373,12,12,12h36c6.627,0,12-5.373,12-12v-35.999C12.333-89.294,6.96-94.667,0.333-94.667L0.333-94.667z"/>
</g>
<g>
	
		<path fill="none" stroke="#28527A" stroke-width="1.5" stroke-linecap="round" stroke-linejoin="round" stroke-miterlimit="2.613" d="
		M-37.646-76.697H2.312c2.136,0,3.884,1.748,3.884,3.884v23.396c0,2.138-1.748,3.886-3.884,3.886h-39.958
		c-2.136,0-3.884-1.748-3.884-3.886v-23.396C-41.53-74.949-39.782-76.697-37.646-76.697z"/>
	
		<line fill="none" stroke="#28527A" stroke-width="1.5" stroke-linecap="round" stroke-linejoin="round" stroke-miterlimit="2.613" x1="-33.068" y1="-76.697" x2="-33.068" y2="-45.531"/>
	
		<path fill="none" stroke="#28527A" stroke-width="1.5" stroke-linecap="round" stroke-linejoin="round" stroke-miterlimit="2.613" d="
		M-24.123-76.697c-1.107,0-1.8-1.201-1.245-2.161l2.443-4.226c0.256-0.446,0.73-0.719,1.245-0.719h4.016h4.014
		c0.514,0,0.988,0.273,1.244,0.719l2.442,4.226c0.554,0.96-0.139,2.161-1.247,2.161"/>
	
		<path fill="none" stroke="#28527A" stroke-width="1.5" stroke-linecap="round" stroke-linejoin="round" stroke-miterlimit="2.613" d="
		M-17.667-71.178c5.56,0,10.065,4.508,10.065,10.064s-4.506,10.065-10.065,10.065c-5.556,0-10.065-4.509-10.065-10.065
		S-23.224-71.178-17.667-71.178z"/>
	
		<path fill="none" stroke="#28527A" stroke-width="1.5" stroke-linecap="round" stroke-linejoin="round" stroke-miterlimit="2.613" d="
		M-0.221-76.697c0.792,0,1.437-0.646,1.437-1.44v-0.574c0-0.794-0.645-1.44-1.437-1.44h-3.946c-0.795,0-1.44,0.646-1.44,1.44v0.574
		c0,0.795,0.646,1.44,1.44,1.44"/>
	
		<path fill="none" stroke="#28527A" stroke-width="1.5" stroke-linecap="round" stroke-linejoin="round" stroke-miterlimit="2.613" d="
		M-17.667-66.884c3.188,0,5.771,2.582,5.771,5.771"/>
</g>
<g>
	
		<path fill="none" stroke="#28527A" stroke-width="1.5" stroke-linecap="round" stroke-linejoin="round" stroke-miterlimit="2.613" d="
		M54.203,5.796c-2.918-2.918-13.461,5.34-20.604,12.867L12.66,13.022l-1.736,3.894L25.67,27.664
		c-3.241,3.887-6.412,7.871-9.427,11.566L5.811,37.143l-0.615,1.789l10.627,5.246l5.247,10.627l1.789-0.613l-2.087-10.434
		c3.694-3.016,7.679-6.186,11.565-9.43l10.747,14.748l3.895-1.736l-5.644-20.938C48.863,19.258,57.122,8.714,54.203,5.796z"/>
	<path fill="none" stroke="#28527A" stroke-width="1.5" stroke-miterlimit="2.613" d="M25.773,11.721l2.735,2.734
		c0.466,0.467,0.466,1.232,0,1.699l-0.898,0.897l-6.983-1.882l3.447-3.448C24.542,11.254,25.306,11.254,25.773,11.721z"/>
	<path fill="none" stroke="#28527A" stroke-width="1.5" stroke-miterlimit="2.613" d="M48.278,34.229l-2.733-2.734
		c-0.469-0.467-1.23-0.467-1.699,0l-0.896,0.896l1.882,6.982l3.447-3.447C48.745,35.459,48.745,34.693,48.278,34.229z"/>
</g>
</svg>
