<?xml version="1.0" encoding="utf-8"?>
<!-- Generator: Adobe Illustrator 16.0.0, SVG Export Plug-In . SVG Version: 6.00 Build 0)  -->
<!DOCTYPE svg PUBLIC "-//W3C//DTD SVG 1.1//EN" "http://www.w3.org/Graphics/SVG/1.1/DTD/svg11.dtd">
<svg version="1.1" id="Layer_1" xmlns="http://www.w3.org/2000/svg" xmlns:xlink="http://www.w3.org/1999/xlink" x="0px" y="0px"
	 width="60px" height="60px" viewBox="0 0 60 60" enable-background="new 0 0 60 60" xml:space="preserve">
<g>
	<path fill="#FFFFFF" d="M12.001,59.249c-6.203,0-11.25-5.047-11.25-11.25V12c0-6.203,5.047-11.25,11.25-11.25h36
		c6.203,0,11.25,5.047,11.25,11.25v35.999c0,6.203-5.047,11.25-11.25,11.25H12.001z"/>
	<path fill="#28527A" d="M48.001,1.5c5.79,0,10.5,4.71,10.5,10.5v35.999c0,5.79-4.71,10.5-10.5,10.5h-36
		c-5.79,0-10.5-4.71-10.5-10.5V12c0-5.79,4.71-10.5,10.5-10.5H48.001 M48.001,0h-36c-6.627,0-12,5.372-12,12v35.999
		c0,6.627,5.373,12,12,12h36c6.627,0,12-5.373,12-12V12C60.001,5.372,54.628,0,48.001,0L48.001,0z"/>
</g>
<g>
	
		<path fill="none" stroke="#28527A" stroke-width="1.5" stroke-linecap="round" stroke-linejoin="round" stroke-miterlimit="2.613" d="
		M10.022,17.97h39.958c2.136,0,3.884,1.748,3.884,3.884V45.25c0,2.138-1.748,3.886-3.884,3.886H10.022
		c-2.136,0-3.884-1.748-3.884-3.886V21.854C6.138,19.718,7.886,17.97,10.022,17.97z"/>
	
		<line fill="none" stroke="#28527A" stroke-width="1.5" stroke-linecap="round" stroke-linejoin="round" stroke-miterlimit="2.613" x1="14.599" y1="17.97" x2="14.599" y2="49.136"/>
	
		<path fill="none" stroke="#28527A" stroke-width="1.5" stroke-linecap="round" stroke-linejoin="round" stroke-miterlimit="2.613" d="
		M23.544,17.97c-1.107,0-1.8-1.201-1.245-2.161l2.443-4.226c0.256-0.446,0.73-0.719,1.245-0.719h4.016h4.014
		c0.514,0,0.988,0.273,1.244,0.719l2.442,4.226c0.554,0.96-0.139,2.161-1.247,2.161"/>
	
		<path fill="none" stroke="#28527A" stroke-width="1.5" stroke-linecap="round" stroke-linejoin="round" stroke-miterlimit="2.613" d="
		M30,23.488c5.56,0,10.065,4.508,10.065,10.064S35.56,43.618,30,43.618c-5.556,0-10.065-4.509-10.065-10.065
		S24.444,23.488,30,23.488z"/>
	
		<path fill="none" stroke="#28527A" stroke-width="1.5" stroke-linecap="round" stroke-linejoin="round" stroke-miterlimit="2.613" d="
		M47.446,17.97c0.792,0,1.437-0.646,1.437-1.44v-0.574c0-0.794-0.645-1.44-1.437-1.44H43.5c-0.795,0-1.44,0.646-1.44,1.44v0.574
		c0,0.795,0.646,1.44,1.44,1.44"/>
	
		<path fill="none" stroke="#28527A" stroke-width="1.5" stroke-linecap="round" stroke-linejoin="round" stroke-miterlimit="2.613" d="
		M30,27.782c3.188,0,5.771,2.582,5.771,5.771"/>
</g>
</svg>
